<svg width="118" height="118" viewBox="0 0 118 118" fill="none" xmlns="http://www.w3.org/2000/svg">
<g clip-path="url(#clip0_401_2)">
<path d="M118 91.3548C118 105.946 105.946 118.634 90.7204 118.634H27.2796C12.6882 118.634 0 106.581 0 91.3548V27.2796C0 12.0538 12.0538 0 27.2796 0H91.3548C105.946 0 118.634 12.0538 118.634 27.2796V91.3548H118Z" fill="black"/>
<path d="M100.871 32.9893H94.5269C94.5269 52.6559 85.0108 68.5161 72.957 68.5161C69.1505 68.5161 65.9785 66.6129 62.8064 64.0753C68.5161 56.4624 71.6882 45.6774 71.6882 32.9893H65.3441C65.3441 43.1398 62.8065 52.6559 58.3656 59C53.9247 52.6559 51.3871 43.1398 51.3871 32.9893H45.043C45.043 45.6774 48.2151 56.4624 53.9247 64.0753C50.7527 67.2473 47.5806 68.5161 43.7742 68.5161C32.3548 68.5161 22.2043 52.0215 22.2043 32.9893H15.8602C15.8602 55.1936 26.6452 72.3226 39.9677 74.8602V94.5269H46.3118V74.8602C50.7527 74.2258 54.5591 72.3226 57.7312 69.1505C60.9032 72.3226 64.7097 74.2258 69.1505 74.8602V94.5269H75.4946V74.8602C90.086 72.3226 100.871 54.5591 100.871 32.9893Z" fill="url(#paint0_linear_401_2)"/>
</g>
<defs>
<linearGradient id="paint0_linear_401_2" x1="16.8892" y1="63.5126" x2="100.812" y2="63.5126" gradientUnits="userSpaceOnUse">
<stop stop-color="#D43C8F"/>
<stop offset="1" stop-color="#F8CC7E"/>
</linearGradient>
<clipPath id="clip0_401_2">
<rect width="118" height="118" rx="59" fill="white"/>
</clipPath>
</defs>
</svg>
